<?xml version="1.0" standalone="no"?>
<!DOCTYPE svg PUBLIC "-//W3C//DTD SVG 20010904//EN"
 "http://www.w3.org/TR/2001/REC-SVG-20010904/DTD/svg10.dtd">
<svg version="1.0" xmlns="http://www.w3.org/2000/svg"
 width="710.000000pt" height="598.000000pt" viewBox="0 0 710.000000 598.000000"
 preserveAspectRatio="xMidYMid meet">

<g transform="translate(0.000000,598.000000) scale(0.100000,-0.100000)"
fill="#000000" stroke="none">
<path d="M90 2995 l0 -2925 3445 0 3445 0 0 2925 0 2925 -3445 0 -3445 0 0
-2925z m6680 2204 c0 -548 6 -514 -71 -411 -60 80 -107 129 -156 163 -23 16
-49 44 -58 63 -14 30 -22 35 -83 47 -65 14 -67 15 -69 48 -5 53 -19 64 -76 57
-59 -8 -83 8 -93 61 -9 48 -38 65 -89 51 -53 -14 -118 13 -123 52 -8 52 -37
63 -79 30 -36 -28 -48 -25 -93 20 -21 21 -50 42 -64 46 -28 7 -56 -9 -56 -32
0 -19 -54 -18 -74 1 -8 8 -18 24 -21 35 -10 30 -52 25 -85 -10 -19 -21 -37
-30 -59 -30 -17 0 -31 4 -31 9 0 5 -12 23 -26 40 -37 44 -69 41 -91 -6 -14
-29 -25 -39 -46 -41 -23 -3 -30 2 -42 32 -27 64 -111 60 -117 -6 -4 -46 -39
-50 -77 -9 -44 47 -77 42 -101 -13 -11 -24 -26 -49 -34 -56 -20 -16 -51 -5
-70 25 -10 16 -26 25 -41 25 -29 0 -65 -32 -65 -58 0 -42 -45 -55 -75 -22 -36
40 -105 14 -105 -39 0 -14 -4 -32 -8 -39 -22 -34 -250 -21 -298 17 -28 22 -78
28 -89 11 -8 -13 40 -86 65 -100 12 -6 20 -21 20 -36 0 -35 -41 -50 -98 -35
-78 20 -141 7 -92 -19 11 -6 41 -31 65 -56 25 -25 66 -54 91 -65 l46 -19 -4
-63 c-3 -44 -10 -71 -26 -92 -24 -33 -26 -53 -22 -285 2 -125 -25 -321 -62
-439 -22 -72 -21 -87 15 -184 20 -56 35 -77 76 -112 60 -51 110 -66 150 -43
20 12 30 13 43 5 14 -9 23 -6 45 14 15 14 47 34 70 44 69 29 78 46 75 130 -4
96 19 153 101 253 47 56 71 78 94 83 44 9 111 51 155 96 48 49 79 120 86 195
4 53 8 61 31 69 33 13 164 2 211 -17 92 -39 220 -208 263 -349 30 -96 31 -115
8 -131 -26 -18 -41 -73 -41 -148 l0 -59 -42 7 c-68 12 -218 25 -275 26 -41 0
-57 -5 -70 -20 -10 -11 -43 -46 -74 -78 -30 -31 -73 -88 -94 -125 -31 -57 -37
-75 -32 -107 6 -48 71 -186 249 -530 24 -47 52 -107 62 -134 38 -99 116 -156
276 -200 36 -10 107 -31 158 -47 144 -45 213 -37 182 20 -10 20 -8 21 49 21
33 0 63 4 66 10 7 11 -12 50 -72 147 -37 61 -51 74 -88 89 -28 10 -55 14 -72
9 -80 -20 -104 -18 -133 10 -17 16 -30 42 -34 65 -5 30 -26 62 -94 140 -82 95
-174 240 -153 240 6 0 29 -23 53 -52 84 -101 182 -199 232 -230 28 -18 70 -49
94 -69 64 -55 115 -64 203 -33 38 13 74 24 81 24 7 0 42 -21 78 -46 36 -24 97
-66 135 -91 39 -25 95 -62 125 -83 30 -20 89 -56 130 -80 41 -24 113 -67 160
-96 47 -29 110 -65 140 -81 l55 -28 3 -937 2 -938 -32 7 c-18 3 -57 11 -86 17
l-52 11 -4 105 c-4 115 -23 172 -101 310 -21 36 -53 101 -72 145 -42 99 -76
158 -119 209 -19 21 -41 60 -50 85 -21 63 -43 106 -81 168 -33 53 -66 158 -79
251 -7 53 -7 53 35 88 57 49 55 75 -11 170 -71 103 -88 115 -152 108 -36 -4
-69 0 -113 14 -53 17 -65 18 -80 6 -29 -21 -49 -17 -133 31 -44 25 -86 45 -93
45 -27 0 -44 -35 -50 -99 -7 -81 8 -113 92 -196 34 -33 61 -64 61 -69 0 -5 -9
-29 -21 -53 -25 -51 -20 -71 21 -86 30 -11 30 -12 30 -92 -1 -128 -15 -203
-45 -235 -32 -34 -45 -78 -45 -160 0 -65 38 -228 66 -282 8 -15 17 -60 20
-100 5 -60 0 -96 -26 -208 -17 -74 -35 -170 -40 -213 -10 -88 -18 -103 -63
-112 -59 -13 -88 -65 -53 -94 26 -22 118 -31 151 -15 16 8 41 12 56 9 26 -6
42 4 71 43 11 15 131 92 144 92 2 0 4 -9 4 -20 0 -11 -23 -45 -51 -76 -44 -49
-50 -60 -45 -87 3 -17 7 -32 9 -33 1 -2 43 -6 92 -10 121 -9 128 -2 133 139
l4 102 78 1 c43 1 95 5 114 8 20 4 36 3 36 -2 0 -10 -30 -23 -98 -41 -60 -17
-72 -49 -35 -98 45 -59 102 -69 152 -27 17 14 31 32 31 39 0 20 68 83 114 107
32 16 61 20 177 21 l139 2 0 -162 0 -163 -3235 0 -3235 0 0 175 c0 165 1 175
19 175 10 0 35 7 54 15 25 10 72 15 149 15 112 0 114 0 173 36 33 20 70 45 84
55 33 27 62 24 105 -10 37 -30 111 -49 141 -37 9 3 23 -3 32 -14 16 -19 31
-20 240 -20 145 0 224 4 228 11 12 19 -4 55 -30 67 -15 7 -72 12 -130 12 -121
0 -142 11 -129 64 4 17 8 50 9 72 2 23 15 68 31 100 27 56 29 67 32 207 l3
147 32 17 c21 11 64 18 122 21 86 4 93 2 148 -28 40 -21 62 -28 70 -21 7 5 23
11 36 13 39 5 47 53 17 93 -19 25 -37 34 -83 44 -32 7 -77 17 -100 22 -23 5
-68 9 -100 9 -33 0 -64 5 -71 12 -8 8 -12 49 -12 119 0 124 12 161 74 230 52
59 141 169 191 236 21 29 52 57 67 64 17 7 44 34 63 65 47 74 33 104 -34 70
-15 -8 -33 -22 -41 -31 -7 -9 -41 -32 -76 -51 -35 -19 -116 -82 -180 -140
-148 -132 -200 -150 -168 -57 14 39 13 46 -6 83 -19 36 -24 40 -60 40 -45 0
-85 15 -117 44 l-23 19 0 -21 c0 -22 -50 -62 -78 -62 -7 0 -35 16 -63 35 -28
19 -57 35 -65 35 -19 0 -18 -67 1 -104 8 -15 15 -39 15 -52 0 -13 18 -57 40
-99 22 -42 40 -86 40 -99 0 -12 11 -55 25 -94 14 -39 25 -78 25 -86 0 -7 -27
-65 -59 -129 -33 -63 -73 -157 -90 -208 -29 -90 -81 -327 -81 -372 0 -74 -51
-152 -124 -189 -32 -17 -67 -23 -156 -27 -94 -5 -123 -11 -153 -28 l-37 -22 0
2484 0 2485 3235 0 3235 0 0 -491z m-924 -4163 c19 -14 19 -15 -5 -40 -14 -14
-27 -26 -31 -26 -3 0 -4 18 -2 40 4 44 9 47 38 26z m-56 -176 c0 -28 7 -65 17
-83 9 -18 20 -47 24 -65 10 -46 -20 -79 -80 -88 l-44 -7 6 59 c6 66 56 234 69
234 4 0 8 -23 8 -50z"/>
<path d="M1233 5068 c-5 -7 -65 -131 -133 -275 -68 -145 -127 -263 -130 -263
-4 0 -66 122 -138 270 -113 231 -152 299 -152 262 0 -4 -7 -66 -15 -137 -9
-72 -22 -191 -30 -265 -25 -229 -22 -220 -58 -235 -30 -13 -26 -14 63 -14 91
0 93 0 63 14 -40 17 -39 13 -14 285 l17 185 111 -225 c61 -124 118 -234 126
-245 14 -19 20 -11 91 138 41 86 94 198 118 248 36 78 43 88 48 68 4 -13 15
-121 25 -239 11 -118 23 -218 28 -221 5 -3 45 -7 90 -7 72 0 78 1 45 10 -70
19 -69 13 -117 467 -11 101 -22 185 -24 187 -2 3 -9 -1 -14 -8z"/>
<path d="M1675 4963 c-67 -24 -109 -55 -143 -106 -40 -58 -52 -100 -52 -176 1
-112 62 -207 163 -252 73 -33 191 -33 262 -1 140 64 209 231 155 374 -25 67
-95 137 -156 156 -70 23 -173 25 -229 5z m190 -32 c144 -65 185 -318 71 -436
-72 -75 -185 -83 -276 -20 -106 74 -139 279 -62 390 54 78 174 108 267 66z"/>
<path d="M2385 4963 c-67 -24 -109 -55 -143 -106 -40 -58 -52 -100 -52 -176 1
-109 55 -198 154 -249 71 -36 196 -38 271 -4 113 52 169 145 170 277 0 90 -19
136 -77 192 -76 73 -221 102 -323 66z m190 -32 c111 -50 164 -209 120 -358
-24 -80 -108 -143 -191 -143 -11 0 -43 7 -70 15 -196 58 -233 392 -54 483 55
28 138 29 195 3z"/>
<path d="M3630 4970 c-98 -3 -152 -8 -134 -12 41 -9 44 -26 44 -248 0 -230 -5
-267 -39 -285 -23 -13 -10 -14 135 -15 176 0 178 1 186 58 5 35 -6 44 -15 12
-7 -26 -46 -40 -108 -40 -87 0 -89 3 -89 135 l0 115 61 0 c66 0 99 -12 99 -36
0 -8 5 -12 10 -9 6 3 10 26 10 51 0 41 -2 44 -19 34 -11 -5 -51 -10 -90 -10
l-71 0 0 110 0 110 66 0 c75 0 104 -12 104 -42 0 -13 4 -18 9 -12 10 11 22 95
13 92 -4 -1 -81 -5 -172 -8z"/>
<path d="M2918 4956 l32 -15 0 -243 c0 -134 -4 -248 -8 -254 -4 -6 -16 -16
-27 -22 -16 -9 1 -11 80 -11 83 0 95 2 70 11 -16 6 -33 16 -37 22 -4 6 -8 55
-8 109 l0 97 55 0 c53 0 55 -1 85 -45 61 -89 133 -167 166 -181 18 -8 59 -13
91 -13 l58 2 -40 10 c-44 12 -129 91 -204 190 l-44 58 33 32 c61 59 76 135 40
194 -37 61 -58 68 -225 71 -139 2 -148 1 -117 -12z m246 -41 c48 -44 61 -126
31 -190 -24 -49 -68 -64 -144 -49 l-31 7 0 128 0 129 59 0 c48 0 63 -4 85 -25z"/>
<path d="M720 4053 c-172 -3 -174 -4 -140 -21 l35 -17 3 -281 c1 -163 -2 -293
-7 -307 -6 -15 -19 -27 -33 -29 -13 -2 55 -7 151 -12 114 -5 177 -4 184 3 5 5
12 34 14 63 l4 53 -15 -32 c-19 -42 -43 -53 -118 -53 -101 0 -103 3 -103 163
0 75 3 138 6 142 4 3 40 2 80 -2 69 -7 75 -10 89 -38 l14 -30 7 60 c8 65 5 75
-13 57 -7 -7 -46 -12 -101 -12 l-88 0 2 117 c1 65 4 123 6 130 4 9 25 13 67
12 89 -1 109 -9 122 -48 l11 -34 6 48 c9 62 9 76 0 73 -5 -1 -87 -4 -183 -5z"/>
<path d="M1235 3942 c-58 -19 -130 -86 -160 -147 -26 -55 -32 -160 -11 -223
45 -136 192 -212 350 -182 l64 12 104 -55 c146 -79 236 -107 340 -107 78 0
153 13 222 40 48 18 23 21 -40 5 -126 -33 -249 -9 -446 87 -71 34 -128 63
-128 65 0 2 16 17 35 34 19 17 47 56 62 87 23 47 28 70 28 132 -1 63 -5 83
-28 125 -52 95 -146 145 -272 144 -38 0 -92 -8 -120 -17z m210 -32 c93 -45
141 -141 133 -266 -9 -144 -86 -228 -206 -227 -149 1 -242 105 -244 272 0 116
33 180 117 224 44 24 149 22 200 -3z"/>
<path d="M2800 3701 c0 -143 -3 -266 -6 -275 -3 -9 -14 -16 -24 -16 -11 0 -22
-4 -25 -10 -4 -6 27 -10 85 -10 58 0 89 4 85 10 -3 6 -14 10 -24 10 -38 0 -43
24 -49 225 -3 107 -3 195 0 195 3 0 48 -44 99 -97 249 -258 334 -343 346 -343
10 0 13 58 15 267 l3 267 25 13 c22 11 15 13 -60 11 -47 0 -75 -3 -63 -5 42
-8 45 -24 50 -241 l4 -207 -37 40 c-152 164 -408 425 -415 425 -5 0 -9 -113
-9 -259z"/>
<path d="M3460 3948 c0 -5 9 -8 20 -8 37 0 41 -30 38 -276 l-3 -235 -25 -19
c-24 -18 -22 -18 140 -17 l164 2 8 39 c11 53 5 68 -13 31 -16 -34 -69 -50
-134 -40 -62 9 -65 15 -65 136 l0 109 64 0 c77 0 96 -6 96 -31 0 -10 4 -19 9
-19 5 0 11 23 13 50 2 42 0 49 -12 44 -8 -4 -50 -9 -92 -12 l-78 -5 0 112 0
111 73 0 c77 0 90 -4 100 -34 10 -24 13 -20 20 29 l6 40 -164 0 c-91 0 -165
-3 -165 -7z"/>
<path d="M1765 3943 c41 -10 45 -29 45 -203 0 -201 11 -251 69 -303 86 -78
249 -70 328 15 47 50 56 92 62 293 l6 189 25 7 c14 4 -14 7 -65 7 -49 0 -81
-3 -70 -5 44 -11 45 -18 45 -202 -1 -245 -22 -298 -126 -321 -76 -17 -144 14
-182 85 -14 25 -17 63 -17 225 l0 194 25 13 c22 11 13 13 -70 12 -52 -1 -86
-3 -75 -6z"/>
<path d="M2450 3941 l25 -7 3 -257 2 -257 -25 -10 c-14 -5 -25 -12 -25 -15 0
-3 43 -5 95 -5 52 0 95 4 95 9 0 5 -12 11 -27 13 -37 4 -42 33 -42 280 -1 203
5 243 36 251 10 3 -22 5 -72 5 -51 0 -79 -3 -65 -7z"/>
<path d="M2900 2990 c-74 -4 -270 -13 -435 -19 -165 -7 -376 -17 -470 -24
-110 -7 -420 -11 -884 -11 -393 1 -707 -2 -699 -7 20 -11 515 -48 713 -52 208
-5 581 7 980 33 886 56 1449 54 1799 -6 77 -13 141 -22 143 -20 9 8 -100 46
-177 61 -218 42 -267 47 -550 50 -157 2 -346 0 -420 -5z"/>
<path d="M1797 2691 c-78 -7 -97 -22 -97 -80 0 -20 -3 -47 -7 -59 l-6 -24 41
21 c23 12 45 21 51 21 5 0 30 -18 57 -40 26 -21 60 -42 76 -45 32 -7 83 -47
99 -76 7 -15 5 -27 -8 -49 -17 -30 -18 -30 -108 -31 -63 0 -83 -3 -68 -9 32
-13 35 -38 31 -225 -3 -151 -5 -168 -22 -181 -18 -13 -12 -14 55 -13 46 1 65
4 49 8 -24 7 -25 10 -28 109 l-3 102 45 0 c34 0 50 -6 66 -22 l20 -22 0 35 0
34 -65 -3 -65 -4 0 86 0 86 54 0 c45 0 58 -4 70 -22 l16 -22 0 21 c0 12 3 28
6 36 4 11 -1 13 -20 10 -29 -6 -31 1 -11 37 8 14 14 39 15 56 0 26 5 33 28 39
15 3 58 20 96 37 78 34 119 37 166 13 18 -9 29 -12 25 -6 -3 7 -21 18 -38 25
-27 12 -29 14 -10 15 12 1 34 6 48 13 30 13 17 28 -26 28 -14 0 -29 3 -33 8
-4 4 -29 7 -54 8 -31 1 -87 17 -162 47 -121 49 -136 51 -283 38z m506 -118
c-7 -2 -19 -2 -25 0 -7 3 -2 5 12 5 14 0 19 -2 13 -5z"/>
<path d="M4000 2342 c0 -4 14 -13 30 -19 l30 -11 0 -174 c0 -180 -4 -198 -42
-198 -10 0 -18 -4 -18 -10 0 -6 37 -10 90 -10 53 0 90 4 90 10 0 6 -8 10 -18
10 -33 0 -42 22 -42 97 l0 73 45 0 c85 0 147 44 161 115 9 47 -16 89 -66 109
-42 17 -260 24 -260 8z m192 -22 c45 -13 58 -34 58 -93 0 -54 -27 -83 -88 -93
l-42 -7 0 102 c0 113 -1 111 72 91z"/>
<path d="M3458 2294 c-37 -20 -59 -65 -52 -104 4 -17 11 -33 16 -36 5 -3 -7
-23 -26 -44 -120 -133 36 -288 187 -186 l34 23 39 -23 c28 -17 54 -24 89 -24
l50 1 -36 13 c-34 12 -109 54 -109 61 0 1 12 28 26 59 32 70 27 86 -23 85 -33
0 -35 -1 -15 -9 12 -5 22 -18 22 -28 0 -27 -20 -82 -30 -82 -17 0 -134 116
-162 159 -33 52 -35 80 -10 112 35 42 122 18 122 -33 0 -11 5 -16 10 -13 17
10 12 72 -6 79 -28 11 -98 6 -126 -10z m63 -256 c74 -75 80 -83 63 -95 -24
-17 -78 -27 -110 -19 -53 14 -96 92 -78 142 7 18 33 54 40 54 2 0 40 -37 85
-82z"/>
<path d="M2540 2261 c-59 -4 -95 -9 -82 -13 22 -6 22 -9 22 -167 0 -142 -2
-161 -17 -170 -13 -8 12 -10 90 -11 86 0 107 3 107 14 0 8 3 23 6 33 6 15 3
14 -15 -4 -24 -26 -88 -32 -109 -11 -7 7 -12 40 -12 80 l0 68 45 0 c30 0 47
-5 53 -16 8 -14 10 -11 14 14 l4 30 -58 -6 -58 -5 0 72 0 71 44 0 c27 0 51 -6
60 -16 15 -14 16 -13 16 15 0 17 -1 30 -2 29 -2 -1 -50 -4 -108 -7z"/>
<path d="M2150 2253 c27 -11 30 -26 30 -173 0 -147 -3 -162 -30 -173 -8 -3 33
-6 91 -6 111 -1 119 2 119 45 0 10 -5 9 -20 -6 -23 -23 -88 -28 -108 -8 -7 7
-12 40 -12 80 l0 68 50 0 c29 0 50 -5 50 -11 0 -5 5 -7 10 -4 6 3 10 14 10 24
0 15 -8 17 -60 13 l-60 -4 0 71 0 71 50 0 c35 0 52 -5 58 -16 8 -14 10 -12 14
10 l5 26 -106 -1 c-58 0 -99 -3 -91 -6z"/>
<path d="M2778 2250 c21 -9 22 -13 22 -162 0 -155 -3 -171 -30 -180 -33 -11
191 -19 230 -8 152 41 183 256 49 335 -29 17 -55 20 -164 22 -90 2 -123 0
-107 -7z m222 -32 c104 -53 122 -213 31 -278 -21 -14 -52 -24 -90 -27 -50 -5
-61 -3 -80 16 -19 19 -21 32 -21 159 0 76 3 142 7 145 15 16 110 6 153 -15z"/>
<path d="M4415 2243 c-63 -4 -67 -5 -45 -16 25 -12 25 -14 25 -147 0 -132 0
-135 -22 -138 -13 -2 -23 -8 -23 -13 0 -5 58 -9 135 -9 l135 0 0 45 c0 25 -2
45 -4 45 -2 0 -13 -16 -25 -35 -19 -33 -23 -35 -74 -35 -29 0 -58 5 -65 12 -7
7 -12 38 -12 71 l0 58 37 -3 c27 -2 41 -9 49 -26 20 -41 24 -36 24 34 l-1 69
-20 -27 c-16 -21 -29 -28 -55 -28 l-35 0 3 63 3 62 34 3 c50 5 76 -4 91 -33
19 -35 30 -31 30 10 0 34 -1 35 -37 35 -21 0 -47 2 -58 3 -11 2 -51 2 -90 0z"/>
<path d="M4753 2242 l-123 -3 0 -39 c0 -49 12 -51 39 -5 16 28 27 35 51 35
l31 0 -3 -142 c-3 -140 -4 -143 -25 -146 -13 -2 -23 -8 -23 -13 0 -5 34 -9 75
-9 41 0 75 4 75 9 0 5 -10 11 -22 13 -22 3 -23 6 -26 146 l-3 142 31 0 c23 0
35 -8 52 -35 13 -19 26 -35 31 -35 4 0 7 18 7 40 0 22 -3 40 -7 41 -5 0 -15 1
-23 2 -8 1 -70 1 -137 -1z"/>
<path d="M2620 1773 c-37 -13 -60 -47 -60 -85 0 -53 12 -73 87 -143 50 -48 63
-66 63 -90 0 -50 -24 -75 -74 -75 -42 0 -66 15 -79 50 -3 8 -6 -2 -6 -22 -1
-32 3 -39 25 -44 44 -11 113 2 139 26 27 25 41 76 31 114 -6 25 -34 56 -109
123 -36 32 -47 49 -47 72 0 59 80 82 125 36 l25 -24 0 28 c0 21 -6 30 -22 35
-27 7 -77 7 -98 -1z"/>
<path d="M2860 1703 l-25 -4 6 -122 c7 -141 21 -181 74 -203 45 -18 85 -18
134 2 58 23 71 58 71 189 0 58 5 115 10 126 10 17 7 19 -26 19 -31 0 -35 -2
-24 -15 8 -10 11 -52 8 -140 -3 -125 -3 -127 -31 -151 -33 -28 -91 -32 -123
-9 -37 26 -46 65 -42 194 1 67 1 120 -2 120 -3 -1 -16 -4 -30 -6z"/>
<path d="M3255 1693 c13 -34 18 -259 7 -292 l-11 -31 42 0 c32 0 38 3 29 12
-8 8 -12 58 -12 160 l0 148 35 0 c45 0 85 -37 85 -77 0 -36 -9 -48 -45 -67
-19 -10 -24 -16 -13 -16 70 0 123 91 84 142 -20 27 -61 38 -138 38 -63 0 -69
-2 -63 -17z"/>
<path d="M3565 1540 l0 -170 33 0 c30 0 33 2 25 23 -4 12 -8 85 -8 162 l0 140
28 3 c90 11 127 -117 45 -153 l-33 -14 27 -1 c17 0 40 11 59 28 43 38 45 94 5
128 -23 21 -38 24 -104 24 l-77 0 0 -170z"/>
<path d="M3869 1696 c9 -10 12 -61 10 -168 l-2 -153 82 -3 c84 -3 111 6 111
35 0 12 -3 12 -22 -1 -29 -21 -92 -20 -113 0 -14 14 -16 38 -13 160 l3 144
-34 0 c-28 0 -31 -2 -22 -14z"/>
<path d="M4084 1691 c10 -11 40 -55 67 -98 49 -77 50 -79 47 -145 l-4 -68 35
0 c27 0 32 3 23 12 -7 7 -12 39 -12 74 0 57 4 67 51 140 28 44 58 85 67 92 14
10 11 12 -16 12 -20 0 -32 -5 -32 -14 0 -16 -72 -145 -81 -146 -10 0 -89 129
-89 146 0 10 -11 14 -37 14 -35 0 -36 -1 -19 -19z"/>
<path d="M4681 1460 c-36 -45 -38 -55 -13 -55 13 0 16 -7 14 -28 -2 -15 2 -35
9 -43 9 -11 6 -26 -14 -72 -58 -129 -57 -239 4 -362 36 -72 87 -119 178 -164
38 -20 72 -40 76 -46 3 -6 23 -19 44 -30 l38 -19 -11 -44 c-14 -56 -33 -79
-57 -72 -11 4 -26 0 -35 -9 -8 -9 -24 -16 -35 -16 -10 0 -19 -5 -19 -10 0 -9
28 -7 69 6 8 3 11 -1 7 -11 -7 -19 -8 -19 48 6 26 11 55 17 66 14 30 -9 24
-25 -8 -25 -26 0 -92 -25 -92 -35 0 -2 24 -1 53 2 l52 6 -19 -22 c-25 -28 -15
-27 31 5 21 14 50 28 66 31 15 3 27 9 27 13 0 5 -9 6 -20 3 -16 -4 -20 0 -20
21 0 14 5 46 12 70 10 39 17 47 57 65 25 11 57 23 70 27 64 17 121 101 121
180 0 20 9 39 26 55 36 34 54 82 54 146 0 30 4 62 9 72 6 10 13 52 17 93 l7
76 -29 15 c-40 21 -83 2 -114 -49 -13 -22 -25 -41 -26 -43 -7 -8 -183 -30
-244 -30 -66 -1 -133 21 -156 50 -6 8 -21 46 -32 84 -21 71 -64 126 -120 154
-12 7 -20 16 -17 22 4 5 -5 9 -18 9 -16 0 -34 -13 -56 -40z m407 -839 c21 -13
2 -95 -22 -99 -26 -5 -37 17 -30 58 10 53 21 61 52 41z"/>
<path d="M3540 1090 c0 -40 4 -70 10 -70 6 0 10 29 10 66 0 69 13 81 36 35 9
-18 13 -19 17 -7 8 21 -19 46 -49 46 -23 0 -24 -3 -24 -70z"/>
<path d="M4282 1105 l-2 -59 -55 54 c-30 30 -55 48 -54 40 1 -17 106 -116 115
-108 3 3 3 34 1 69 l-3 64 -2 -60z"/>
<path d="M4420 1156 c0 -2 7 -7 16 -10 8 -3 12 -2 9 4 -6 10 -25 14 -25 6z"/>
<path d="M2468 1143 c6 -2 18 -2 25 0 6 3 1 5 -13 5 -14 0 -19 -2 -12 -5z"/>
<path d="M2857 1133 c-11 -10 -8 -111 3 -118 6 -4 10 18 10 59 0 66 -1 72 -13
59z"/>
<path d="M2953 1075 c0 -38 2 -56 4 -38 3 19 11 34 21 36 16 4 16 5 0 6 -11 1
-18 12 -21 34 -2 17 -4 1 -4 -38z"/>
<path d="M3031 1110 c-4 -40 -1 -83 5 -89 8 -9 9 5 3 64 -4 44 -6 51 -8 25z"/>
<path d="M3100 1082 c0 -34 3 -62 8 -62 8 0 5 110 -3 119 -3 2 -5 -23 -5 -57z"/>
<path d="M3198 1134 c-11 -10 -10 -114 1 -114 5 0 10 10 12 23 6 32 -5 100
-13 91z"/>
<path d="M3422 1098 c-1 -27 -5 -48 -9 -48 -4 0 -27 19 -50 42 -24 23 -43 36
-42 28 1 -17 97 -106 105 -98 3 3 3 32 1 64 -3 56 -3 56 -5 12z"/>
<path d="M3650 1080 c0 -33 3 -60 8 -60 4 0 7 27 7 60 0 33 -3 60 -7 60 -5 0
-8 -27 -8 -60z"/>
<path d="M3861 1080 c1 -37 6 -60 13 -60 8 0 10 19 9 54 -3 53 -3 55 24 59 23
3 21 4 -10 6 l-38 1 2 -60z"/>
<path d="M3988 1133 c6 -2 18 -2 25 0 6 3 1 5 -13 5 -14 0 -19 -2 -12 -5z"/>
<path d="M4336 1124 c-11 -28 -6 -62 10 -78 26 -26 37 -18 14 11 -15 19 -19
35 -15 55 7 30 1 38 -9 12z"/>
<path d="M2440 1115 c0 -8 9 -23 21 -33 11 -9 25 -26 29 -37 8 -19 9 -19 9 -1
1 10 -12 34 -29 53 -19 21 -30 28 -30 18z"/>
<path d="M2619 1114 c18 -13 22 -24 19 -51 -4 -31 -3 -33 9 -17 7 10 13 24 13
31 0 16 -36 53 -52 53 -7 0 -2 -7 11 -16z"/>
<path d="M2690 1081 c0 -28 5 -53 10 -56 6 -4 10 15 10 49 0 31 -4 56 -10 56
-5 0 -10 -22 -10 -49z"/>
<path d="M2771 1083 c1 -53 6 -49 11 10 2 20 0 37 -4 37 -4 0 -8 -21 -7 -47z"/>
<path d="M3248 1104 c4 -22 6 -24 14 -10 9 16 3 36 -11 36 -5 0 -6 -12 -3 -26z"/>
<path d="M3721 1120 c1 -8 23 -35 50 -59 45 -40 49 -42 49 -21 0 13 -3 20 -7
16 -4 -3 -26 13 -50 36 -24 23 -43 36 -42 28z"/>
<path d="M3961 1114 c-1 -11 10 -30 24 -42 14 -13 23 -27 20 -32 -3 -6 -1 -10
4 -10 20 0 11 38 -12 57 -13 10 -26 25 -30 33 -4 11 -6 9 -6 -6z"/>
<path d="M2534 1084 c-7 -28 27 -74 55 -73 10 0 8 3 -6 9 -24 10 -39 50 -29
75 3 8 1 15 -4 15 -5 0 -13 -11 -16 -26z"/>
<path d="M4173 1065 c0 -27 2 -38 4 -22 2 15 2 37 0 50 -2 12 -4 0 -4 -28z"/>
<path d="M3249 1046 c14 -14 27 -26 29 -26 10 0 -26 44 -39 48 -8 3 -3 -7 10
-22z"/>
</g>
</svg>
